<svg xmlns="http://www.w3.org/2000/svg" version="1.1" xmlns:xlink="http://www.w3.org/1999/xlink" xmlns:svgjs="http://svgjs.dev/svgjs" width="1000" height="1000" viewBox="0 0 1000 1000"><rect width="1000" height="1000" fill="#ffffff"></rect><g transform="matrix(0.7,0,0,0.7,149.57575757575756,443.9982010143232)"><svg viewBox="0 0 396 64" data-background-color="#ffffff" preserveAspectRatio="xMidYMid meet" height="161" width="1000" xmlns="http://www.w3.org/2000/svg" xmlns:xlink="http://www.w3.org/1999/xlink"><g id="tight-bounds" transform="matrix(1,0,0,1,0.2400000000000091,-0.19773615720217208)"><svg viewBox="0 0 395.52 64.39547231440434" height="64.39547231440434" width="395.52"><g><svg viewBox="0 0 504.1634044751768 82.0839415322034" height="64.39547231440434" width="395.52"><g><rect width="5.35630575832255" height="59.692012474576266" x="409.5417428228339" y="11.195964528813565" fill="#000000" opacity="1" stroke-width="0" stroke="transparent" fill-opacity="1" class="rect-o-0" data-fill-palette-color="primary" rx="1%" id="o-0" data-palette-color="#000000"></rect></g><g transform="matrix(1,0,0,1,0,11.3444521220339)"><svg viewBox="0 0 395.52 59.3950372881356" height="59.3950372881356" width="395.52"><g><svg viewBox="0 0 395.52 59.3950372881356" height="59.3950372881356" width="395.52"><g><svg viewBox="0 0 395.52 59.3950372881356" height="59.3950372881356" width="395.52"><g transform="matrix(1,0,0,1,0,0)"><svg width="395.52" viewBox="-1 -35.70000076293945 294.9800109863281 44.30000305175781" height="59.3950372881356" data-palette-color="#000000"><g class="undefined-text-0" data-fill-palette-color="primary" id="text-0"><path d="M0.95 8.6L-0.35 8.6-1 4.5Q1.7 4.5 2.85 3.33 4 2.15 4-0.4L4-0.4 4-35 8.75-35 8.75 0.7Q8.75 4.83 6.83 6.71 4.9 8.6 0.95 8.6L0.95 8.6ZM30.85 0.7L30.85 0.7Q25.92 0.7 22.71-1.19 19.5-3.08 17.92-6.56 16.35-10.05 16.35-14.85L16.35-14.85 16.35-35 21.1-35 21.1-16.15Q21.1-13.75 21.47-11.5 21.85-9.25 22.86-7.48 23.87-5.7 25.81-4.65 27.75-3.6 30.85-3.6L30.85-3.6Q33.97-3.6 35.9-4.65 37.82-5.7 38.84-7.49 39.85-9.28 40.22-11.53 40.6-13.78 40.6-16.15L40.6-16.15 40.6-35 45.35-35 45.35-14.85Q45.35-10.05 43.77-6.56 42.2-3.08 38.98-1.19 35.77 0.7 30.85 0.7ZM62.95 0.7L62.95 0.7Q60.77 0.7 58.6 0.38 56.42 0.05 54.57-0.46 52.72-0.98 51.5-1.55L51.5-1.55 52.15-6.6Q53.5-5.95 55.41-5.25 57.32-4.55 59.55-4.08 61.77-3.6 64.05-3.6L64.05-3.6Q67.42-3.6 69.41-4.84 71.4-6.08 71.4-8.7L71.4-8.7Q71.4-10.68 70.4-11.94 69.4-13.2 67.38-14.1 65.37-15 62.35-15.9L62.35-15.9Q59.47-16.75 57.05-17.91 54.62-19.07 53.16-21.04 51.7-23 51.7-26.25L51.7-26.25Q51.7-29.03 53.13-31.16 54.57-33.3 57.36-34.5 60.15-35.7 64.2-35.7L64.2-35.7Q67.65-35.7 70.53-34.95 73.42-34.2 75.3-33.3L75.3-33.3 74.8-28.25Q71.95-29.95 69.36-30.68 66.77-31.4 64-31.4L64-31.4Q60.92-31.4 58.91-30.25 56.9-29.1 56.9-26.5L56.9-26.5Q56.9-24.75 57.8-23.64 58.7-22.53 60.47-21.74 62.25-20.95 64.9-20.15L64.9-20.15Q68.55-19.05 71.17-17.64 73.8-16.23 75.2-14.16 76.6-12.1 76.6-9.05L76.6-9.05Q76.6-6.8 75.75-5 74.9-3.2 73.2-1.93 71.5-0.65 68.93 0.03 66.37 0.7 62.95 0.7ZM93.84 0L89.09 0 89.09-30.7 78.89-30.7 78.89-35 104.04-35 104.04-30.7 93.84-30.7 93.84 0ZM120.49 0L115.74 0 115.74-30.7 105.54-30.7 105.54-35 130.69-35 130.69-30.7 120.49-30.7 120.49 0ZM157.24 0L135.44 0 135.44-35 156.79-35 156.79-30.7 140.19-30.7 140.19-20.45 153.39-20.45 153.39-16.15 140.19-16.15 140.19-4.3 157.24-4.3 157.24 0ZM173.14 0.7L173.14 0.7Q170.96 0.7 168.79 0.38 166.61 0.05 164.76-0.46 162.91-0.98 161.69-1.55L161.69-1.55 162.34-6.6Q163.69-5.95 165.6-5.25 167.51-4.55 169.74-4.08 171.96-3.6 174.24-3.6L174.24-3.6Q177.61-3.6 179.6-4.84 181.59-6.08 181.59-8.7L181.59-8.7Q181.59-10.68 180.59-11.94 179.59-13.2 177.57-14.1 175.56-15 172.54-15.9L172.54-15.9Q169.66-16.75 167.24-17.91 164.81-19.07 163.35-21.04 161.89-23 161.89-26.25L161.89-26.25Q161.89-29.03 163.32-31.16 164.76-33.3 167.55-34.5 170.34-35.7 174.39-35.7L174.39-35.7Q177.84-35.7 180.72-34.95 183.61-34.2 185.49-33.3L185.49-33.3 184.99-28.25Q182.14-29.95 179.55-30.68 176.96-31.4 174.19-31.4L174.19-31.4Q171.11-31.4 169.1-30.25 167.09-29.1 167.09-26.5L167.09-26.5Q167.09-24.75 167.99-23.64 168.89-22.53 170.66-21.74 172.44-20.95 175.09-20.15L175.09-20.15Q178.74-19.05 181.36-17.64 183.99-16.23 185.39-14.16 186.79-12.1 186.79-9.05L186.79-9.05Q186.79-6.8 185.94-5 185.09-3.2 183.39-1.93 181.69-0.65 179.12 0.03 176.56 0.7 173.14 0.7ZM204.03 0L199.28 0 199.28-30.7 189.08-30.7 189.08-35 214.23-35 214.23-30.7 204.03-30.7 204.03 0ZM223.73 0L218.98 0 218.98-35 223.73-35 223.73 0ZM236.48 0L231.73 0 231.73-35 236.88-35 254.13-8.8 254.13-35 258.93-35 258.93 0 254.88 0 236.48-27.65 236.48 0ZM282.03 0.7L282.03 0.7Q277.18 0.7 273.29-1.54 269.4-3.78 267.14-7.88 264.88-11.98 264.88-17.55L264.88-17.55Q264.88-23.08 267.21-27.15 269.55-31.23 273.64-33.46 277.73-35.7 282.98-35.7L282.98-35.7Q285.8-35.7 288.36-35.11 290.93-34.52 292.83-33.7L292.83-33.7 292.38-29.55Q290.33-30.35 288.03-30.88 285.73-31.4 283.13-31.4L283.13-31.4Q278.65-31.4 275.76-29.54 272.88-27.68 271.48-24.53 270.08-21.38 270.08-17.5L270.08-17.5Q270.08-13.5 271.5-10.36 272.93-7.23 275.88-5.41 278.83-3.6 283.38-3.6L283.38-3.6Q284.5-3.6 286.18-3.8 287.85-4 289.23-4.55L289.23-4.55 289.23-13.25 283.73-13.25 283.73-17.55 293.98-17.55 293.98-1.95Q291.93-0.83 288.88-0.06 285.83 0.7 282.03 0.7Z" fill="#000000" data-fill-palette-color="primary"></path></g></svg></g></svg></g></svg></g></svg></g><g transform="matrix(1,0,0,1,428.91979140399036,0)"><svg viewBox="0 0 75.24361307118645 82.0839415322034" height="82.0839415322034" width="75.24361307118645"><g><svg xmlns="http://www.w3.org/2000/svg" viewBox="2 0 44 48" x="0" y="0" height="82.0839415322034" width="75.24361307118645" class="icon-icon-0" data-fill-palette-color="accent" id="icon-0"><path d="M33.34 26.83L36.17 24l-2.83-2.83 1.42-1.41 2.83 2.83L39 24l-1.41 1.41-2.83 2.83Zm-20.1-7.07l-2.83 2.83L9 24l1.41 1.41 2.83 2.83 1.42-1.41L11.83 24l2.83-2.83ZM46 12V36L24 48 2 36V12L24 0Zm-2 1.19L24 2.28 4 13.19V34.81L24 45.72 44 34.81ZM20.89 32.45l8-16-1.78-0.9-8 16Z" fill="#020202" data-fill-palette-color="accent"></path></svg></g></svg></g></svg></g><defs></defs></svg><rect width="395.52" height="64.39547231440434" fill="none" stroke="none" visibility="hidden"></rect></g></svg></g></svg>